<svg xmlns="http://www.w3.org/2000/svg" version="1.1" xmlns:xlink="http://www.w3.org/1999/xlink" xmlns:svgjs="http://svgjs.dev/svgjs" width="1000" height="1000"><g clip-path="url(#SvgjsClipPath1072)"><rect width="1000" height="1000" fill="#ffffff"></rect><g transform="matrix(2.622950819672131,0,0,2.622950819672131,100.00000000000006,100.00000000000006)"><svg xmlns="http://www.w3.org/2000/svg" version="1.1" xmlns:xlink="http://www.w3.org/1999/xlink" xmlns:svgjs="http://svgjs.dev/svgjs" width="305" height="305"><svg version="1.1" id="hubflow-apps" xmlns="http://www.w3.org/2000/svg" x="0px" y="0px" viewBox="0 0 305 305">
  <g id="app-icon" transform="matrix(1, 0, 0, 1, 10.7, 0)" style="transform-origin: 141.822px -0.604998px;">
    <path d="M 108.967 250.624 C 108.967 224.255 90.115 202.244 65.38 197.341 L 65.38 168.246 L 218.48 168.246 L 218.48 197.341 C 193.635 202.353 174.892 224.364 174.892 250.624 C 174.892 280.591 199.301 305 229.267 305 C 259.233 305 283.643 280.481 283.643 250.624 C 283.643 224.255 264.9 202.244 240.055 197.341 L 240.055 157.348 C 240.055 151.356 235.153 146.453 229.158 146.453 L 155.497 146.453 L 155.497 116.377 C 182.737 111.256 203.443 87.391 203.443 58.733 C 203.443 26.26 176.964 0 144.71 0 C 112.455 0 85.976 26.369 85.976 58.733 C 85.976 87.501 106.679 111.365 133.921 116.377 L 133.921 146.453 L 54.483 146.453 C 48.381 146.453 43.587 151.356 43.587 157.348 L 43.587 197.341 C 18.743 202.353 0 224.364 0 250.624 C 0 280.591 24.41 305 54.375 305 C 84.339 305 108.749 280.481 108.749 250.624 L 108.967 250.624 Z M 105.699 58.733 C 105.699 37.048 123.243 19.505 144.926 19.505 C 166.611 19.505 184.155 37.048 184.155 58.733 C 184.155 80.418 166.502 97.96 144.926 97.96 C 123.35 97.96 105.699 80.309 105.699 58.733 Z M 262.067 250.624 C 262.067 268.604 247.356 283.315 229.376 283.315 C 211.397 283.315 196.687 268.604 196.687 250.624 C 196.687 232.645 211.288 217.934 229.376 217.934 C 247.466 217.934 262.067 232.536 262.067 250.624 Z M 21.792 250.624 C 21.792 232.536 36.394 217.934 54.483 217.934 C 72.571 217.934 87.173 232.536 87.173 250.624 C 87.173 268.713 72.464 283.315 54.483 283.315 C 36.503 283.315 21.792 268.604 21.792 250.624 Z" style="fill: rgb(94, 147, 210);"></path>
  </g>
</svg></svg></g></g><defs><clipPath id="SvgjsClipPath1072"><rect width="1000" height="1000" x="0" y="0" rx="150" ry="150"></rect></clipPath></defs></svg>