<?xml version="1.0" encoding="utf-8"?>
<svg version="1.1" id="hubflow-apps" xmlns="http://www.w3.org/2000/svg" x="0px" y="0px" viewBox="0 0 305 305">
  <g id="app-icon">
    <path d="M 104.611 262.097 C 84.88 242.201 65.624 222.575 46.124 203.2 C 42.831 199.928 41.809 197.172 43.56 192.732 C 48.906 179.165 53.685 165.369 59.152 151.856 C 60.737 147.935 60.35 145.701 57.387 142.771 C 38.529 124.13 19.872 105.281 0 85.35 C 8.75 83.252 16.039 81.414 23.368 79.759 C 59.139 71.683 94.946 63.769 130.669 55.478 C 135.266 54.41 139.878 52.105 143.746 49.325 C 191.265 15.178 244.331 -0.481 303.907 0.011 C 303.016 13.315 302.638 26.414 301.179 39.39 C 296.002 85.428 279.225 126.911 252.276 164.327 C 250.431 166.888 249.252 170.175 248.553 173.306 C 239.099 215.622 229.791 257.969 220.417 300.303 C 220.073 301.854 219.428 303.336 218.671 305.605 C 211.459 298.345 204.701 291.549 197.948 284.747 C 186.03 272.739 173.986 260.853 162.284 248.632 C 159.173 245.384 156.771 245.057 152.686 246.737 C 139.301 252.247 125.729 257.303 112.133 262.267 C 110.011 263.042 107.392 262.424 104.611 262.097 M 149.573 76.484 C 147.279 78.493 144.989 80.506 142.692 82.512 C 110.411 110.699 86.494 144.673 72.335 185.529 C 70.788 189.997 71.3 192.644 74.678 195.865 C 83.511 204.284 91.941 213.132 100.532 221.807 C 114.846 236.262 114.922 236.435 133.321 228.059 C 205.12 195.373 251.435 140.693 271.323 63.643 C 274.386 51.778 275.515 39.402 277.663 26.52 C 229.049 30.265 187.656 47.688 149.573 76.484 M 208.686 235.408 C 210.719 225.885 212.753 216.364 214.969 205.991 C 203.219 215.07 192.286 223.517 183.571 230.251 C 190.713 237.896 197.914 245.605 204.842 253.021 C 205.896 248.003 207.101 242.272 208.686 235.408 M 54.799 99.17 C 53.793 99.367 52.787 99.564 51.51 99.813 C 59.589 107.604 67.22 114.963 74.576 122.056 C 82.209 111.95 90.508 100.962 99.44 89.134 C 84.302 92.543 70.061 95.75 54.799 99.17 Z" style="fill: rgb(255, 92, 53);"/>
    <path d="M 69.307 266.83 C 72.356 263.569 75.053 260.663 78.043 257.442 C 82.146 261.893 85.754 265.809 88.928 269.253 C 78.189 280.093 67.21 291.175 55.854 302.639 C 53.064 299.473 49.549 295.484 44.997 290.322 C 52.603 282.977 60.781 275.08 69.307 266.83 Z" style="fill: rgb(255, 92, 53);"/>
    <path d="M 20.91 297.311 C 18.888 299.629 17.216 301.593 15.135 304.039 C 10.755 299.452 6.961 295.48 3.2 291.542 C 14.212 280.473 25.105 269.524 36.483 258.086 C 39.973 261.969 43.628 266.038 47.669 270.535 C 39.099 279.11 30.179 288.035 20.91 297.311 Z" style="fill: rgb(255, 92, 53);"/>
    <path d="M 46.8 228.598 C 35.958 239.583 25.446 250.203 14.891 260.864 C 10.816 256.718 7.088 252.921 3.707 249.479 C 14.682 238.404 25.671 227.315 37.488 215.392 C 40.485 219.382 43.806 223.807 46.8 228.598 Z" style="fill: rgb(255, 92, 53);"/>
    <path d="M 146.896 172.308 C 129.579 159.9 122.939 142.592 128.125 124.172 C 132.692 107.955 148.319 95.039 164.884 93.79 C 183.256 92.406 200.27 102.763 207.572 119.778 C 214.169 135.15 209.835 155.801 197.722 166.708 C 182.671 180.26 164.279 182.414 146.896 172.308 M 184.954 132.174 C 180.581 120.876 170.925 116.222 161.349 120.799 C 152.705 124.932 149.267 135.494 153.77 144.096 C 157.342 150.922 165.386 154.528 172.66 152.566 C 181.27 150.243 185.432 143.842 184.954 132.174 Z" style="fill: rgb(255, 92, 53);"/>
  </g>
</svg>