<?xml version="1.0" encoding="utf-8"?>
<svg version="1.1" id="hubflow-apps" xmlns="http://www.w3.org/2000/svg" x="0px" y="0px" viewBox="0 0 1270 305">
  <g id="app-icon">
    <path d="M 108.967 250.624 C 108.967 224.255 90.115 202.244 65.38 197.341 L 65.38 168.246 L 218.48 168.246 L 218.48 197.341 C 193.635 202.353 174.892 224.364 174.892 250.624 C 174.892 280.591 199.301 305 229.267 305 C 259.233 305 283.643 280.481 283.643 250.624 C 283.643 224.255 264.9 202.244 240.055 197.341 L 240.055 157.348 C 240.055 151.356 235.153 146.453 229.158 146.453 L 155.497 146.453 L 155.497 116.377 C 182.737 111.256 203.443 87.391 203.443 58.733 C 203.443 26.26 176.964 0 144.71 0 C 112.455 0 85.976 26.369 85.976 58.733 C 85.976 87.501 106.679 111.365 133.921 116.377 L 133.921 146.453 L 54.483 146.453 C 48.381 146.453 43.587 151.356 43.587 157.348 L 43.587 197.341 C 18.743 202.353 0 224.364 0 250.624 C 0 280.591 24.41 305 54.375 305 C 84.339 305 108.749 280.481 108.749 250.624 L 108.967 250.624 Z M 105.699 58.733 C 105.699 37.048 123.243 19.505 144.926 19.505 C 166.611 19.505 184.155 37.048 184.155 58.733 C 184.155 80.418 166.502 97.96 144.926 97.96 C 123.35 97.96 105.699 80.309 105.699 58.733 Z M 262.067 250.624 C 262.067 268.604 247.356 283.315 229.376 283.315 C 211.397 283.315 196.687 268.604 196.687 250.624 C 196.687 232.645 211.288 217.934 229.376 217.934 C 247.466 217.934 262.067 232.536 262.067 250.624 Z M 21.792 250.624 C 21.792 232.536 36.394 217.934 54.483 217.934 C 72.571 217.934 87.173 232.536 87.173 250.624 C 87.173 268.713 72.464 283.315 54.483 283.315 C 36.503 283.315 21.792 268.604 21.792 250.624 Z" style="fill: rgb(94, 147, 210);"/>
  </g>
  <g id="app-name" transform="matrix(1.000781, 0, 0, 1.000781, -39.023563, -0.000229)" style="transform-origin: 37.9939px 0.000228px;">
    <path d="M 489.937 0.882 L 489.937 126.135 L 470.179 126.135 L 470.179 70.918 L 407.023 70.918 L 407.023 126.135 L 387.089 126.135 L 387.089 0.882 L 407.023 0.882 L 407.023 53.276 L 470.179 53.276 L 470.179 0.882 L 489.937 0.882 Z M 576.543 127.017 C 566.546 127.017 558.108 125.311 551.229 121.9 C 544.348 118.491 538.82 113.844 534.646 107.965 C 530.47 102.085 527.413 95.38 525.472 87.853 C 523.531 80.326 522.561 72.506 522.561 64.391 L 522.561 0.882 L 542.496 0.882 L 542.496 64.391 C 542.496 70.153 543.054 75.71 544.172 81.062 C 545.289 86.413 547.141 91.205 549.728 95.439 C 552.316 99.673 555.786 103.025 560.137 105.494 C 564.489 107.965 569.899 109.199 576.367 109.199 C 583.071 109.199 588.598 107.965 592.949 105.494 C 597.302 103.025 600.8 99.615 603.447 95.263 C 606.092 90.911 607.974 86.09 609.091 80.796 C 610.209 75.504 610.767 70.036 610.767 64.391 L 610.767 0.882 L 630.702 0.882 L 630.702 64.391 C 630.702 72.976 629.672 81.062 627.615 88.647 C 625.556 96.232 622.382 102.907 618.088 108.67 C 613.796 114.432 608.209 118.932 601.329 122.165 C 594.448 125.399 586.187 127.017 576.543 127.017 Z M 761.687 93.852 C 761.687 100.554 759.924 106.318 756.396 111.14 C 752.867 115.962 748.223 119.666 742.459 122.254 C 736.696 124.842 730.228 126.135 723.053 126.135 L 663.25 126.135 L 663.25 0.882 L 727.818 0.882 C 733.697 0.882 738.784 2.44 743.076 5.557 C 747.369 8.674 750.662 12.672 752.956 17.553 C 755.249 22.434 756.396 27.52 756.396 32.813 C 756.396 38.811 754.837 44.514 751.72 49.924 C 748.604 55.334 744.165 59.334 738.402 61.92 C 745.575 64.037 751.25 67.919 755.425 73.564 C 759.601 79.209 761.687 85.972 761.687 93.852 Z M 741.577 90.147 C 741.577 86.619 740.812 83.384 739.284 80.444 C 737.755 77.504 735.726 75.152 733.197 73.387 C 730.669 71.624 727.7 70.742 724.289 70.742 L 683.184 70.742 L 683.184 109.199 L 723.053 109.199 C 726.582 109.199 729.728 108.287 732.492 106.464 C 735.256 104.641 737.461 102.32 739.107 99.497 C 740.754 96.675 741.577 93.557 741.577 90.147 Z M 683.184 17.818 L 683.184 55.041 L 719.35 55.041 C 722.641 55.041 725.582 54.217 728.169 52.571 C 730.757 50.924 732.815 48.719 734.345 45.956 C 735.873 43.191 736.637 40.046 736.637 36.517 C 736.637 32.871 735.962 29.666 734.609 26.903 C 733.257 24.139 731.345 21.933 728.875 20.288 C 726.406 18.641 723.583 17.818 720.407 17.818 L 683.184 17.818 Z M 788.585 126.135 L 788.585 0.882 L 871.852 0.882 L 871.852 18.346 L 808.519 18.346 L 808.519 55.747 L 861.619 55.747 L 861.619 71.976 L 808.519 71.976 L 808.519 126.135 L 788.585 126.135 Z M 896.965 126.135 L 896.965 0.882 L 916.899 0.882 L 916.899 108.67 L 983.936 108.67 L 983.936 126.135 L 896.965 126.135 Z M 1054.683 127.017 C 1045.863 127.017 1037.808 125.253 1030.516 121.724 C 1023.224 118.197 1016.903 113.404 1011.551 107.347 C 1006.2 101.29 1002.084 94.469 999.202 86.883 C 996.32 79.297 994.88 71.506 994.88 63.508 C 994.88 55.158 996.409 47.19 999.466 39.605 C 1002.525 32.019 1006.787 25.257 1012.257 19.317 C 1017.726 13.378 1024.076 8.674 1031.309 5.204 C 1038.542 1.734 1046.51 0 1055.214 0 C 1064.269 0 1072.412 1.823 1079.645 5.468 C 1086.878 9.115 1093.142 13.995 1098.434 20.111 C 1103.726 26.227 1107.784 33.048 1110.606 40.574 C 1113.429 48.101 1114.84 55.864 1114.84 63.862 C 1114.84 72.094 1113.371 80.003 1110.43 87.588 C 1107.49 95.174 1103.285 101.936 1097.816 107.876 C 1092.348 113.815 1085.996 118.491 1078.764 121.9 C 1071.531 125.311 1063.504 127.017 1054.683 127.017 Z M 1015.168 63.508 C 1015.168 69.507 1016.079 75.24 1017.902 80.709 C 1019.725 86.177 1022.37 91.058 1025.841 95.351 C 1029.31 99.643 1033.486 103.025 1038.365 105.494 C 1043.247 107.965 1048.803 109.199 1055.037 109.199 C 1061.388 109.199 1067.033 107.905 1071.972 105.318 C 1076.911 102.731 1081.087 99.231 1084.498 94.822 C 1087.908 90.412 1090.496 85.502 1092.26 80.092 C 1094.023 74.681 1094.906 69.154 1094.906 63.508 C 1094.906 57.511 1093.965 51.807 1092.084 46.397 C 1090.201 40.987 1087.496 36.135 1083.968 31.842 C 1080.44 27.55 1076.235 24.169 1071.355 21.7 C 1066.473 19.228 1061.034 17.994 1055.037 17.994 C 1048.567 17.994 1042.893 19.288 1038.014 21.875 C 1033.132 24.462 1028.986 27.932 1025.575 32.284 C 1022.165 36.635 1019.578 41.516 1017.813 46.925 C 1016.049 52.336 1015.168 57.863 1015.168 63.508 Z M 1181.354 1.411 L 1199.878 1.411 L 1215.401 44.103 L 1230.926 1.411 L 1249.626 1.411 L 1228.103 56.981 L 1246.802 103.202 L 1285.967 0.882 L 1307.489 0.882 L 1256.329 126.135 L 1239.04 126.135 L 1215.577 70.036 L 1191.939 126.135 L 1174.65 126.135 L 1123.491 0.882 L 1145.013 0.882 L 1184.177 103.202 L 1202.876 56.981 L 1181.354 1.411 Z" style="fill: rgb(21, 35, 60);"/>
    <path d="M 417.193 176.649 L 436.106 176.649 L 485.353 303.334 L 464.297 303.334 L 451.094 268.897 L 402.025 268.897 L 388.821 303.334 L 367.766 303.334 L 417.193 176.649 Z M 446.989 254.088 L 426.649 198.595 L 405.772 254.088 L 446.989 254.088 Z M 507.281 303.334 L 507.281 176.649 L 560.453 176.649 C 566.164 176.649 571.407 177.84 576.194 180.23 C 580.98 182.613 585.146 185.767 588.684 189.686 C 592.227 193.605 594.948 198.028 596.853 202.967 C 598.758 207.906 599.708 212.87 599.708 217.873 C 599.708 224.94 598.134 231.612 594.979 237.888 C 591.825 244.165 587.39 249.301 581.667 253.285 C 575.951 257.267 569.235 259.262 561.524 259.262 L 527.443 259.262 L 527.443 303.334 L 507.281 303.334 Z M 527.443 241.596 L 560.274 241.596 C 563.965 241.596 567.234 240.558 570.089 238.475 C 572.944 236.391 575.205 233.537 576.868 229.91 C 578.532 226.284 579.367 222.231 579.367 217.751 C 579.367 213.067 578.417 208.976 576.512 205.465 C 574.606 201.953 572.14 199.22 569.107 197.258 C 566.074 195.294 562.83 194.313 559.382 194.313 L 527.443 194.313 L 527.443 241.596 Z M 624.784 303.334 L 624.784 176.649 L 677.956 176.649 C 683.667 176.649 688.911 177.84 693.698 180.23 C 698.482 182.613 702.65 185.767 706.188 189.686 C 709.73 193.605 712.451 198.028 714.356 202.967 C 716.262 207.906 717.212 212.87 717.212 217.873 C 717.212 224.94 715.637 231.612 712.483 237.888 C 709.33 244.165 704.894 249.301 699.172 253.285 C 693.448 257.267 686.732 259.262 679.027 259.262 L 644.947 259.262 L 644.947 303.334 L 624.784 303.334 Z M 644.947 241.596 L 677.778 241.596 C 681.468 241.596 684.737 240.558 687.592 238.475 C 690.447 236.391 692.709 233.537 694.372 229.91 C 696.036 226.284 696.871 222.231 696.871 217.751 C 696.871 213.067 695.922 208.976 694.016 205.465 C 692.111 201.953 689.644 199.22 686.611 197.258 C 683.577 195.294 680.334 194.313 676.887 194.313 L 644.947 194.313 L 644.947 241.596 Z M 817.222 206.447 C 816.153 205.14 814.457 203.738 812.138 202.253 C 809.817 200.768 807.141 199.398 804.107 198.149 C 801.074 196.901 797.742 195.829 794.115 194.938 C 790.49 194.045 786.768 193.599 782.964 193.599 C 774.634 193.599 768.454 195.148 764.407 198.238 C 760.36 201.329 758.34 205.612 758.34 211.085 C 758.34 215.133 759.468 218.343 761.73 220.721 C 763.992 223.098 767.472 225.035 772.169 226.52 C 776.866 228.005 782.664 229.585 789.565 231.248 C 798.252 233.268 805.714 235.709 811.959 238.563 C 818.204 241.419 823.022 245.166 826.413 249.805 C 829.802 254.445 831.497 260.632 831.497 268.361 C 831.497 274.665 830.28 280.139 827.839 284.777 C 825.398 289.417 822.04 293.195 817.758 296.109 C 813.476 299.02 808.538 301.193 802.947 302.621 C 797.359 304.049 791.35 304.762 784.927 304.762 C 778.624 304.762 772.348 304.08 766.102 302.709 C 759.857 301.34 753.911 299.377 748.26 296.822 C 742.606 294.267 737.343 291.144 732.468 287.454 L 741.746 270.325 C 743.174 271.873 745.372 273.569 748.348 275.411 C 751.325 277.252 754.74 279.012 758.609 280.674 C 762.475 282.337 766.694 283.739 771.276 284.867 C 775.858 285.994 780.524 286.562 785.284 286.562 C 793.256 286.562 799.349 285.166 803.574 282.37 C 807.798 279.571 809.907 275.5 809.907 270.146 C 809.907 265.986 808.512 262.621 805.714 260.065 C 802.916 257.51 798.933 255.336 793.758 253.552 C 788.584 251.768 782.371 249.984 775.113 248.199 C 766.783 246.058 759.825 243.617 754.236 240.883 C 748.648 238.15 744.479 234.697 741.746 230.534 C 739.012 226.372 737.642 220.958 737.642 214.298 C 737.642 205.968 739.636 198.92 743.62 193.152 C 747.602 187.386 753.109 183.04 760.125 180.128 C 767.141 177.215 774.934 175.756 783.498 175.756 C 789.208 175.756 794.651 176.38 799.826 177.629 C 805 178.878 809.817 180.573 814.279 182.715 C 818.739 184.856 822.697 187.297 826.145 190.031 L 817.222 206.447 Z" style="fill: rgb(21, 35, 60);"/>
  </g>
</svg>